<?xml version="1.0" standalone="no"?>
<!DOCTYPE svg PUBLIC "-//W3C//DTD SVG 20010904//EN"
 "http://www.w3.org/TR/2001/REC-SVG-20010904/DTD/svg10.dtd">
<svg version="1.0" xmlns="http://www.w3.org/2000/svg"
 width="194.000000pt" height="194.000000pt" viewBox="0 0 194.000000 194.000000"
 preserveAspectRatio="xMidYMid meet">
<metadata>
Created by potrace 1.14, written by Peter Selinger 2001-2017
</metadata>
<g transform="translate(0.000000,194.000000) scale(0.100000,-0.100000)"
fill="#000000" stroke="none">
<path d="M777 1544 c-79 -15 -196 -69 -252 -117 -39 -33 -41 -33 -105 -27
-205 22 -330 -33 -330 -144 0 -44 53 -129 127 -202 41 -41 78 -74 83 -74 5 0
9 -15 9 -32 -6 -192 138 -414 324 -502 94 -44 163 -59 267 -59 131 0 248 40
355 121 49 37 53 38 110 32 108 -12 209 -1 259 28 72 42 87 104 46 190 -26 54
-116 156 -167 189 -16 11 -23 25 -23 47 0 17 -7 62 -15 100 -66 311 -369 509
-688 450z m299 -85 c122 -46 233 -147 288 -263 24 -51 60 -176 50 -176 -3 0
-51 28 -107 62 -56 34 -148 83 -204 110 -98 46 -318 132 -365 143 -84 18 -158
40 -158 46 0 33 177 103 285 112 50 4 154 -13 211 -34z m-651 -128 c3 -5 1
-12 -4 -15 -24 -15 -86 -150 -96 -208 -4 -18 -10 -37 -15 -42 -16 -16 -134
119 -150 173 -11 38 16 76 63 90 42 12 194 14 202 2z m265 -50 c138 -40 284
-98 417 -164 149 -75 159 -81 238 -135 66 -45 70 -49 67 -81 -7 -62 -49 -168
-91 -229 l-42 -59 -77 18 c-242 56 -555 190 -748 319 -44 29 -81 54 -83 56 -2
2 4 35 12 73 17 75 42 130 90 200 29 42 31 43 71 38 22 -4 88 -20 146 -36z
m-229 -412 c112 -68 238 -131 368 -184 113 -46 329 -115 362 -115 33 0 21 -19
-33 -50 -115 -66 -272 -89 -393 -56 -191 51 -349 217 -383 404 -5 28 -8 52 -7
52 1 0 40 -23 86 -51z m1068 -31 c155 -150 127 -239 -77 -239 -46 0 -87 2 -89
5 -3 3 9 26 26 52 33 51 65 129 76 187 4 20 10 37 14 37 3 0 26 -19 50 -42z"/>
<path d="M1745 1313 c-11 -29 -39 -67 -69 -96 -44 -44 -48 -50 -32 -59 33 -19
72 -67 100 -124 l28 -57 29 61 c17 35 47 76 69 95 37 32 51 57 31 57 -19 0
-75 66 -98 116 -13 30 -28 54 -32 54 -5 0 -16 -21 -26 -47z"/>
</g>
</svg>
